<?xml version="1.0" encoding="utf-8"?>
<!-- Generator: Adobe Illustrator 24.0.1, SVG Export Plug-In . SVG Version: 6.00 Build 0)  -->
<svg version="1.1" id="Layer_1" xmlns="http://www.w3.org/2000/svg" xmlns:xlink="http://www.w3.org/1999/xlink" x="0px" y="0px"
	 viewBox="0 0 471.1 103.2" style="enable-background:new 0 0 471.1 103.2;" xml:space="preserve">
<style type="text/css">
	.st0{fill:#F91427;}
	.st1{fill:#004DD9;}
</style>
<g>
	<path id="XMLID_80_" class="st0" d="M72.6,62.2c-1.9,3.5-4.6,6.2-7.9,8.4c-3.3,2.1-7.4,3.2-12.1,3.2c-3.2,0-6.2-0.6-9-1.7
		c-2.8-1.1-5.1-2.7-7.1-4.7c-2-2-3.6-4.4-4.7-7.1c-1.1-2.8-1.7-5.7-1.7-9.1c0-3.1,0.6-6,1.6-8.7c1.1-2.8,2.6-5.2,4.6-7.2
		c1.9-2,4.3-3.6,7-4.9c2.7-1.2,5.7-1.8,8.9-1.8c3.4,0,6.5,0.6,9.1,1.7c2.7,1.1,4.9,2.7,6.6,4.7c1.8,2,3.2,4.4,4,7
		c0.9,2.7,1.4,5.7,1.4,8.8V52c-0.1,0.3-0.1,0.6-0.1,1c-0.1,0.2-0.1,0.5-0.1,0.8h-32c0.2,1.7,0.7,3.2,1.5,4.5
		c0.7,1.2,1.6,2.3,2.7,3.2c1.1,0.8,2.3,1.5,3.5,1.8c1.3,0.4,2.6,0.6,3.9,0.6c2.6,0,4.8-0.6,6.5-1.8c1-0.6,1.8-1.5,2.5-2.3
		c1.1-1.2,2.8-1.5,4.1-0.9L72.6,62.2z M62.3,45.8c-0.1-0.7-0.3-1.6-0.7-2.5s-1.1-1.8-1.9-2.6c-0.8-0.8-1.9-1.5-3.1-2
		c-1.2-0.5-2.8-0.8-4.5-0.8c-2.4,0-4.5,0.7-6.4,2.1c-1.9,1.4-3.2,3.3-3.9,5.8H62.3z"/>
	<path id="XMLID_79_" class="st1" d="M176.1,33.4c-1.2-1.5-2.8-2.7-4.7-3.5c-1.9-0.8-4.1-1.3-6.7-1.3c-3.5,0-6.4,0.7-8.8,2.3
		c-2.4,1.5-4.3,3.4-5.7,5.5c-0.9-2.2-2.5-4-4.7-5.6s-4.9-2.3-8.2-2.3c-2.8,0-5.3,0.6-7.6,1.9c-2.3,1.3-4,2.9-5.4,5h-0.7v-2.1
		c0-1.9-1.5-3.4-3.4-3.4h-7.2v42.4h11.3V51.9c0-1.8,0.2-3.5,0.6-5c0.4-1.5,1-2.9,1.8-4c0.7-1.1,1.7-2,2.8-2.7c1.1-0.6,2.3-1,3.8-1
		c4.9,0,7.4,2.9,7.4,8.7v24.7H152V51.9c0-1.8,0.2-3.5,0.6-5c0.4-1.5,1.1-2.9,1.8-4c0.8-1.1,1.8-2,2.9-2.7c1.1-0.6,2.5-1,4-1
		c4.7,0,7.1,2.9,7.1,8.7v24.7h11.3V45.7c0-2.5-0.3-4.8-1-6.9C178.3,36.7,177.3,34.9,176.1,33.4"/>
	<path id="XMLID_39_" class="st1" d="M225.5,35c-2-2-4.4-3.6-7.1-4.7c-2.8-1.1-5.7-1.7-9.1-1.7c-3.3,0-6.3,0.6-9.1,1.7
		c-2.8,1.1-5.1,2.7-7.1,4.7c-2,2-3.6,4.4-4.7,7.1c-1.1,2.8-1.7,5.8-1.7,9.1c0,3.3,0.6,6.3,1.7,9.1c1.1,2.8,2.7,5.2,4.7,7.1
		c2,2,4.4,3.6,7.1,4.7c2.8,1.1,5.7,1.7,9.1,1.7s6.3-0.6,9.1-1.7c2.8-1.1,5.1-2.7,7.1-4.7c2-2,3.6-4.4,4.7-7.1
		c1.1-2.8,1.7-5.8,1.7-9.1c0-3.3-0.6-6.3-1.7-9.1C229,39.4,227.5,37,225.5,35 M219.6,56.3c-0.6,1.5-1.5,2.8-2.5,3.8
		c-1.1,1.1-2.3,1.9-3.6,2.3c-1.4,0.6-2.8,0.8-4.2,0.8c-1.5,0-2.9-0.2-4.2-0.8c-1.3-0.6-2.5-1.4-3.6-2.3c-1.1-1.1-1.9-2.3-2.5-3.8
		c-0.6-1.5-0.9-3.2-0.9-5.1c0-1.9,0.3-3.6,0.9-5.1c0.6-1.5,1.5-2.8,2.5-3.8c1.1-1.1,2.2-1.9,3.6-2.3c1.3-0.6,2.8-0.8,4.2-0.8
		s2.8,0.2,4.2,0.8c1.4,0.6,2.6,1.4,3.6,2.3c1.1,1.1,1.9,2.3,2.5,3.8c0.6,1.5,0.9,3.2,0.9,5.1C220.5,53.2,220.2,54.9,219.6,56.3"/>
	<path id="XMLID_38_" class="st1" d="M274.7,33.6c-1.3-1.6-3-2.8-4.9-3.6c-2-0.9-4.4-1.3-7-1.3c-2.9,0-5.4,0.6-7.7,1.9
		c-2.3,1.2-4,2.9-5.3,5.1h-0.7v-2.1c0-1.9-1.5-3.4-3.4-3.4h-7.3v42.4h11.3V51.6c0-1.7,0.2-3.4,0.6-4.9c0.4-1.5,1.1-2.8,1.9-4
		c0.8-1.1,1.9-2,3-2.7c1.2-0.6,2.6-1,4.1-1c2.6,0,4.6,0.7,5.9,2.2c1.4,1.5,2,3.7,2,6.8v24.4h11.3V46.8c0-2.8-0.3-5.2-1-7.4
		C277,37.1,276,35.2,274.7,33.6"/>
	<path id="XMLID_35_" class="st1" d="M318.7,34.6H318c-1.3-1.9-3.1-3.3-5.3-4.4c-2.2-1.1-4.7-1.6-7.7-1.6c-2.5,0-5,0.5-7.4,1.5
		c-2.4,1.1-4.5,2.5-6.4,4.5c-1.9,1.9-3.3,4.2-4.5,7c-1.1,2.8-1.7,5.7-1.7,9.1s0.6,6.3,1.7,9c1.1,2.7,2.7,5,4.5,6.9
		c1.9,1.9,4,3.4,6.4,4.5c2.4,1.1,4.9,1.5,7.4,1.5c2.9,0,5.5-0.6,7.7-1.6s3.9-2.5,5.3-4.4h0.7v2.9c0,4-1.1,7.3-3.2,9.6
		c-2.1,2.3-4.9,3.5-8.5,3.5c-2.3,0-4.3-0.6-6.2-1.9c-1.1-0.7-2-1.7-2.8-2.8c-0.9-1.4-2.6-1.9-4.1-1.3l-7.9,3.2
		c0.5,1.5,1.4,3,2.5,4.5c1.1,1.5,2.6,2.9,4.4,4.1c1.7,1.2,3.7,2.3,6.1,3c2.3,0.8,5,1.1,8,1.1c3.3,0,6.4-0.6,9.1-1.6s5.1-2.6,7-4.6
		s3.5-4.5,4.6-7.3c1.1-2.8,1.6-6.1,1.6-9.6V30H322c-1.9,0-3.4,1.5-3.4,3.4L318.7,34.6L318.7,34.6z M317.8,55.6
		c-0.6,1.5-1.5,2.7-2.5,3.6c-1.1,1-2.3,1.7-3.6,2.3c-1.4,0.5-2.8,0.7-4.1,0.7s-2.8-0.2-4-0.7c-1.3-0.5-2.5-1.3-3.6-2.3
		c-1.1-1-1.9-2.2-2.5-3.6c-0.6-1.5-1-3.1-1-4.9s0.3-3.6,1-5c0.6-1.5,1.5-2.7,2.5-3.7c1.1-1.1,2.2-1.8,3.6-2.3c1.3-0.5,2.7-0.7,4-0.7
		s2.8,0.2,4.1,0.7c1.4,0.5,2.6,1.3,3.6,2.3c1.1,1,1.9,2.2,2.5,3.7c0.6,1.5,1,3.2,1,5C318.7,52.4,318.5,54.1,317.8,55.6"/>
	<path id="XMLID_32_" class="st1" d="M375.2,35c-2-2-4.4-3.6-7.1-4.7c-2.8-1.1-5.7-1.7-9.1-1.7s-6.3,0.6-9.1,1.7
		c-2.8,1.1-5.1,2.7-7.1,4.7c-2,2-3.6,4.4-4.7,7.1c-1.1,2.8-1.7,5.8-1.7,9.1c0,3.3,0.6,6.3,1.7,9.1c1.1,2.8,2.7,5.2,4.7,7.1
		c2,2,4.4,3.6,7.1,4.7c2.8,1.1,5.7,1.7,9.1,1.7s6.3-0.6,9.1-1.7c2.8-1.1,5.1-2.7,7.1-4.7s3.6-4.4,4.7-7.1c1.1-2.8,1.7-5.8,1.7-9.1
		c0-3.3-0.6-6.3-1.7-9.1C378.7,39.4,377.1,37,375.2,35 M369.2,56.3c-0.6,1.5-1.5,2.8-2.4,3.8c-1.1,1.1-2.3,1.9-3.6,2.3
		c-1.4,0.6-2.8,0.8-4.2,0.8c-1.5,0-2.9-0.2-4.2-0.8c-1.3-0.6-2.5-1.4-3.6-2.3c-1.1-1.1-1.9-2.3-2.5-3.8c-0.6-1.5-0.9-3.2-0.9-5.1
		c0-1.9,0.3-3.6,0.9-5.1c0.6-1.5,1.5-2.8,2.5-3.8c1.1-1.1,2.2-1.9,3.6-2.3c1.3-0.6,2.8-0.8,4.2-0.8s2.8,0.2,4.2,0.8
		c1.4,0.6,2.6,1.4,3.6,2.3c1.1,1.1,1.9,2.3,2.4,3.8c0.6,1.5,0.9,3.2,0.9,5.1C370.1,53.2,369.9,54.9,369.2,56.3"/>
	<rect id="XMLID_31_" x="388.3" y="10.4" class="st1" width="11.3" height="62"/>
	<path id="XMLID_30_" class="st1" d="M415.7,9.7c-1,0-1.9,0.2-2.8,0.6c-0.9,0.4-1.7,0.9-2.3,1.5c-0.6,0.6-1.2,1.5-1.5,2.3
		c-0.4,0.9-0.6,1.8-0.6,2.8c0,1.1,0.2,2,0.6,2.8c0.4,0.9,0.9,1.6,1.5,2.3c0.6,0.6,1.5,1.2,2.3,1.5c0.9,0.4,1.9,0.6,2.8,0.6
		c2,0,3.7-0.7,5.2-2.1c1.5-1.4,2.2-3.2,2.2-5.2s-0.7-3.7-2.2-5.2C419.5,10.4,417.7,9.7,415.7,9.7"/>
	<rect id="XMLID_29_" x="410.1" y="30" class="st1" width="11.3" height="42.4"/>
	<path id="XMLID_26_" class="st1" d="M463.6,33.3c-3.5-3.1-8.5-4.6-15.1-4.6c-7.8,0-13.9,2.8-18.5,8.5l8.3,5.7c2.7-3.3,6-4.9,10-4.9
		c2.7,0,4.9,0.7,6.6,2.2c1.8,1.5,2.7,3.3,2.7,5.6v1.3c-1.1-0.5-2.7-0.9-4.5-1.4c-1.8-0.4-4-0.6-6.9-0.6c-2.5,0-4.8,0.3-6.9,1
		s-4,1.6-5.5,2.9c-1.5,1.3-2.8,2.8-3.6,4.5c-0.9,1.8-1.3,3.7-1.3,5.9c0,2.1,0.4,4.1,1.2,5.9c0.8,1.8,1.9,3.3,3.4,4.6
		c1.5,1.3,3.2,2.3,5.1,3c1.9,0.7,4,1.1,6.2,1.1c2.9,0,5.3-0.6,7.2-1.7c1.9-1.1,3.5-2.5,4.8-4.1h0.7V69c0,1.9,1.5,3.4,3.4,3.4h7.8V47
		C468.7,41,467,36.3,463.6,33.3 M456.8,58.9c-0.5,1.2-1.2,2.2-2.1,3.2c-0.9,0.9-1.9,1.6-3.2,2.2c-1.3,0.6-2.7,0.8-4.1,0.8
		c-1.9,0-3.5-0.5-4.9-1.5c-1.4-1.1-2.1-2.4-2.1-4.1c0-1.7,0.7-3.2,2.2-4.4c1.5-1.2,3.6-1.8,6.3-1.8c1.7,0,3.2,0.2,4.6,0.6
		c1.4,0.4,2.8,0.9,4.1,1.5C457.6,56.5,457.3,57.7,456.8,58.9"/>
	<path id="XMLID_60_" class="st1" d="M76.3,101.8H26.1c-13.8,0-25-11.3-25-25.1V26.5c0-13.8,11.3-25,25-25h50.2
		c13.8,0,25,11.3,25,25v50.2C101.4,90.5,90.1,101.8,76.3,101.8 M26.1,8.8c-9.7,0-17.6,7.9-17.6,17.6v50.2c0,9.7,7.9,17.6,17.6,17.6
		h50.2c9.7,0,17.6-7.9,17.6-17.6V26.5c0-9.7-7.9-17.6-17.6-17.6C76.3,8.8,26.1,8.8,26.1,8.8z"/>
	<polygon id="XMLID_59_" class="st0" points="347.1,88.6 347.1,92.6 344.9,92.6 344.9,90.4 336.5,90.4 336.5,80.3 338.8,80.3 
		338.8,88.6 343.3,88.6 343.3,80.3 345.6,80.3 345.6,88.6 	"/>
	<path id="XMLID_56_" class="st0" d="M356.2,82.6v7.8H354v-0.9c-0.6,0.6-1.4,1-2.4,1c-0.7,0-1.4-0.2-2-0.5c-0.6-0.3-1.1-0.8-1.4-1.4
		c-0.3-0.6-0.5-1.3-0.5-2.1c0-0.8,0.2-1.5,0.5-2.1c0.3-0.6,0.8-1.1,1.4-1.4c0.6-0.3,1.3-0.5,2-0.5c1,0,1.8,0.3,2.3,1v-0.8
		L356.2,82.6L356.2,82.6z M353.4,88.1c0.4-0.4,0.6-0.9,0.6-1.5s-0.2-1.2-0.6-1.5c-0.4-0.4-0.9-0.6-1.4-0.6c-0.6,0-1.1,0.2-1.5,0.6
		S350,86,350,86.6s0.2,1.2,0.6,1.5c0.4,0.4,0.9,0.6,1.5,0.6C352.6,88.7,353.1,88.5,353.4,88.1"/>
	<polygon id="XMLID_55_" class="st0" points="363.2,90.4 361.5,88.1 359.8,90.4 357.3,90.4 360.3,86.5 357.3,82.6 359.9,82.6 
		361.6,84.9 363.3,82.6 365.7,82.6 362.8,86.4 365.8,90.4 	"/>
	<path id="XMLID_54_" class="st0" d="M374.4,82.6v7.8h-2.2v-0.9c-0.2,0.3-0.6,0.6-1.1,0.7s-0.9,0.2-1.4,0.2c-1.1,0-1.9-0.3-2.4-0.9
		c-0.6-0.6-0.9-1.5-0.9-2.6v-4.4h2.3v4c0,1.2,0.5,1.9,1.5,1.9c0.6,0,1-0.2,1.3-0.6c0.3-0.3,0.5-0.9,0.5-1.5v-3.9L374.4,82.6
		L374.4,82.6z"/>
	<polygon id="XMLID_53_" class="st0" points="384.1,90.4 384.1,85.8 381.8,89.7 380.9,89.7 378.6,85.8 378.6,90.4 376.5,90.4 
		376.5,82.6 379,82.6 381.4,87.2 384.1,82.6 386.2,82.6 386.2,90.4 	"/>
	<polygon id="XMLID_52_" class="st0" points="396.9,90.5 396.9,93.2 394.7,93.2 394.7,90.5 391.3,82.6 393.7,82.6 395.9,88 
		398.1,82.6 400.2,82.6 	"/>
	<polygon id="XMLID_51_" class="st0" points="401.4,82.6 403.6,82.6 403.6,85.7 407,85.7 407,82.6 409.2,82.6 409.2,90.4 407,90.4 
		407,87.5 403.6,87.5 403.6,90.4 401.4,90.4 	"/>
	<path id="XMLID_48_" class="st0" d="M419.4,82.6v6.5c0,1.5-0.4,2.5-1.1,3.2c-0.7,0.7-1.8,1.1-3.2,1.1c-0.7,0-1.5-0.1-2.1-0.2
		c-0.6-0.2-1.2-0.5-1.7-0.8l0.9-1.6c0.3,0.2,0.7,0.5,1.2,0.6s1,0.2,1.5,0.2c0.8,0,1.4-0.2,1.7-0.6c0.4-0.3,0.6-0.9,0.6-1.6V89
		c-0.6,0.6-1.4,1-2.4,1c-0.7,0-1.4-0.2-1.9-0.5c-0.6-0.3-1.1-0.7-1.4-1.3c-0.3-0.6-0.5-1.2-0.5-1.9c0-0.7,0.2-1.4,0.5-1.9
		s0.8-1,1.4-1.3c0.6-0.3,1.2-0.5,1.9-0.5c1.1,0,2,0.4,2.6,1.1v-1L419.4,82.6L419.4,82.6z M416.5,87.7c0.4-0.3,0.6-0.8,0.6-1.4
		c0-0.6-0.2-1.1-0.6-1.4c-0.4-0.3-0.9-0.6-1.5-0.6c-0.6,0-1.1,0.2-1.5,0.6c-0.4,0.3-0.6,0.8-0.6,1.4c0,0.6,0.2,1.1,0.6,1.4
		c0.4,0.3,0.9,0.6,1.5,0.6C415.6,88.2,416.1,88.1,416.5,87.7"/>
	<path id="XMLID_47_" class="st0" d="M426.3,83.1c0.6,0.3,1.2,0.8,1.5,1.5c0.4,0.6,0.6,1.3,0.6,2.1s-0.2,1.5-0.6,2.1
		c-0.4,0.6-0.9,1.1-1.5,1.5c-0.6,0.3-1.4,0.5-2.3,0.5c-0.7,0-1.5-0.2-2-0.4c-0.6-0.2-1.1-0.6-1.5-1.1l1.3-1.2
		c0.6,0.6,1.3,0.9,2.1,0.9c0.6,0,1.1-0.2,1.5-0.4s0.6-0.6,0.8-1.1h-3.2v-1.5h3.2c-0.2-0.5-0.4-0.8-0.8-1.1c-0.4-0.2-0.9-0.4-1.5-0.4
		c-0.8,0-1.5,0.3-2.1,0.9l-1.3-1.2c0.4-0.5,0.9-0.8,1.5-1.1c0.6-0.2,1.3-0.4,2-0.4C424.9,82.5,425.7,82.7,426.3,83.1"/>
	<path id="XMLID_46_" class="st0" d="M431.4,90c-0.6-0.3-1.2-0.8-1.5-1.5c-0.4-0.6-0.6-1.3-0.6-2.1s0.2-1.5,0.6-2.1
		c0.4-0.6,0.9-1.1,1.5-1.5c0.6-0.3,1.4-0.5,2.3-0.5c0.8,0,1.5,0.2,2.2,0.5c0.6,0.3,1.1,0.8,1.4,1.5l-1.8,1c-0.4-0.7-1-1.1-1.8-1.1
		c-0.6,0-1.1,0.2-1.5,0.6c-0.4,0.4-0.6,0.9-0.6,1.5s0.2,1.2,0.6,1.5c0.4,0.4,0.9,0.6,1.5,0.6c0.8,0,1.4-0.3,1.8-1.1l1.8,1
		c-0.2,0.6-0.7,1.1-1.4,1.5c-0.6,0.3-1.3,0.5-2.2,0.5C432.8,90.6,432.1,90.4,431.4,90"/>
	<path id="XMLID_45_" class="st0" d="M450.8,83.4c0.6,0.6,0.9,1.5,0.9,2.6v4.5h-2.3v-4.1c0-0.6-0.2-1.1-0.4-1.4
		c-0.2-0.3-0.6-0.5-1.1-0.5c-0.6,0-1,0.2-1.3,0.5c-0.3,0.3-0.5,0.9-0.5,1.5v3.9h-2.3v-4.1c0-1.2-0.5-1.9-1.5-1.9
		c-0.5,0-1,0.2-1.2,0.5c-0.3,0.3-0.5,0.9-0.5,1.5v3.9h-2.3v-7.8h2.2v0.9c0.3-0.3,0.6-0.6,1.1-0.7s0.9-0.2,1.4-0.2
		c0.6,0,1.1,0.1,1.5,0.3c0.5,0.2,0.8,0.6,1.1,1c0.3-0.4,0.7-0.7,1.2-1c0.5-0.2,1.1-0.3,1.6-0.3C449.5,82.6,450.2,82.8,450.8,83.4"/>
	<path id="XMLID_44_" class="st0" d="M458.5,83.1c0.6,0.3,1.2,0.8,1.5,1.5c0.4,0.6,0.6,1.3,0.6,2.1s-0.2,1.5-0.6,2.1
		c-0.4,0.6-0.9,1.1-1.5,1.5c-0.6,0.3-1.4,0.5-2.3,0.5c-0.7,0-1.5-0.2-2-0.4c-0.6-0.2-1.1-0.6-1.5-1.1l1.3-1.2
		c0.6,0.6,1.3,0.9,2.1,0.9c0.6,0,1.1-0.2,1.5-0.4s0.6-0.6,0.8-1.1h-3.2v-1.5h3.2c-0.2-0.5-0.4-0.8-0.8-1.1c-0.4-0.2-0.9-0.4-1.5-0.4
		c-0.8,0-1.5,0.3-2.1,0.9l-1.3-1.2c0.4-0.5,0.9-0.8,1.5-1.1s1.3-0.4,2-0.4C457.1,82.5,457.8,82.7,458.5,83.1"/>
	<polygon id="XMLID_43_" class="st0" points="462.2,82.6 464.4,82.6 464.4,85.7 467.8,85.7 467.8,82.6 470,82.6 470,90.4 
		467.8,90.4 467.8,87.5 464.4,87.5 464.4,90.4 462.2,90.4 	"/>
</g>
</svg>
